<mxfile host="app.diagrams.net" modified="2021-06-29T00:10:40.893Z" agent="5.0 (Macintosh)" etag="p6UY8ExSTjTm9J-ffLbn" version="14.8.2" type="github">
  <diagram name="Page-1" id="55a83fd1-7818-8e21-69c5-c3457e3827bb">
    <mxGraphModel dx="946" dy="612" grid="1" gridSize="10" guides="1" tooltips="1" connect="1" arrows="1" fold="1" page="1" pageScale="1" pageWidth="1100" pageHeight="850" background="none" math="0" shadow="0">
      <root>
        <mxCell id="0" />
        <mxCell id="1" parent="0" />
        <mxCell id="uYu8JDhBFFsHPAoW2Dka-38" value="" style="edgeStyle=orthogonalEdgeStyle;rounded=0;orthogonalLoop=1;jettySize=auto;html=1;fontSize=22;" edge="1" parent="1" source="uYu8JDhBFFsHPAoW2Dka-15" target="uYu8JDhBFFsHPAoW2Dka-37">
          <mxGeometry relative="1" as="geometry" />
        </mxCell>
        <mxCell id="uYu8JDhBFFsHPAoW2Dka-40" value="" style="edgeStyle=orthogonalEdgeStyle;rounded=0;orthogonalLoop=1;jettySize=auto;html=1;fontSize=22;" edge="1" parent="1" source="uYu8JDhBFFsHPAoW2Dka-15" target="uYu8JDhBFFsHPAoW2Dka-39">
          <mxGeometry relative="1" as="geometry" />
        </mxCell>
        <mxCell id="uYu8JDhBFFsHPAoW2Dka-42" value="" style="edgeStyle=orthogonalEdgeStyle;rounded=0;orthogonalLoop=1;jettySize=auto;html=1;fontSize=15;" edge="1" parent="1" source="uYu8JDhBFFsHPAoW2Dka-15" target="uYu8JDhBFFsHPAoW2Dka-41">
          <mxGeometry relative="1" as="geometry" />
        </mxCell>
        <mxCell id="uYu8JDhBFFsHPAoW2Dka-15" value="OpenWRT" style="image;html=1;image=img/lib/clip_art/networking/Wireless_Router_128x128.png;noLabel=0;direction=east;labelPosition=center;verticalLabelPosition=bottom;align=center;verticalAlign=top;fontSize=22;labelBackgroundColor=none;" vertex="1" parent="1">
          <mxGeometry x="690" y="125" width="80" height="80" as="geometry" />
        </mxCell>
        <mxCell id="69ecfefc5c41e42c-2" value="&lt;div&gt;GoogleFiber&lt;/div&gt;" style="image;html=1;labelBackgroundColor=#ffffff;image=img/lib/clip_art/networking/Cloud_128x128.png;rounded=1;shadow=0;comic=0;strokeWidth=2;fontSize=22;labelPosition=center;verticalLabelPosition=top;align=center;verticalAlign=bottom;" parent="1" vertex="1">
          <mxGeometry x="470" y="40" width="80" height="80" as="geometry" />
        </mxCell>
        <mxCell id="uYu8JDhBFFsHPAoW2Dka-14" value="" style="edgeStyle=orthogonalEdgeStyle;rounded=0;orthogonalLoop=1;jettySize=auto;html=1;" edge="1" parent="1" source="uYu8JDhBFFsHPAoW2Dka-11" target="uYu8JDhBFFsHPAoW2Dka-15">
          <mxGeometry relative="1" as="geometry">
            <mxPoint x="640" y="265" as="targetPoint" />
          </mxGeometry>
        </mxCell>
        <mxCell id="uYu8JDhBFFsHPAoW2Dka-45" value="" style="edgeStyle=orthogonalEdgeStyle;rounded=0;orthogonalLoop=1;jettySize=auto;html=1;fontSize=15;" edge="1" parent="1" source="uYu8JDhBFFsHPAoW2Dka-11" target="uYu8JDhBFFsHPAoW2Dka-29">
          <mxGeometry relative="1" as="geometry" />
        </mxCell>
        <mxCell id="uYu8JDhBFFsHPAoW2Dka-11" value="" style="aspect=fixed;perimeter=ellipsePerimeter;html=1;align=center;shadow=0;dashed=0;spacingTop=3;image;image=img/lib/active_directory/switch.svg;" vertex="1" parent="1">
          <mxGeometry x="600" y="140" width="50" height="50" as="geometry" />
        </mxCell>
        <mxCell id="uYu8JDhBFFsHPAoW2Dka-21" value="" style="edgeStyle=orthogonalEdgeStyle;rounded=0;orthogonalLoop=1;jettySize=auto;html=1;fontSize=22;" edge="1" parent="1" source="uYu8JDhBFFsHPAoW2Dka-20" target="uYu8JDhBFFsHPAoW2Dka-11">
          <mxGeometry relative="1" as="geometry" />
        </mxCell>
        <mxCell id="uYu8JDhBFFsHPAoW2Dka-23" value="" style="edgeStyle=orthogonalEdgeStyle;rounded=0;orthogonalLoop=1;jettySize=auto;html=1;fontSize=22;" edge="1" parent="1" source="uYu8JDhBFFsHPAoW2Dka-20" target="69ecfefc5c41e42c-2">
          <mxGeometry relative="1" as="geometry" />
        </mxCell>
        <mxCell id="uYu8JDhBFFsHPAoW2Dka-20" value="&lt;div&gt;OpnSense&lt;/div&gt;&lt;div style=&quot;font-size: 10px&quot; align=&quot;center&quot;&gt;10.0.0.1&lt;br&gt;&lt;/div&gt;" style="aspect=fixed;pointerEvents=1;shadow=0;dashed=0;html=1;labelPosition=right;verticalLabelPosition=middle;verticalAlign=middle;align=left;fillColor=#e1d5e7;shape=mxgraph.mscae.enterprise.router;fontSize=22;labelBackgroundColor=none;strokeColor=none;" vertex="1" parent="1">
          <mxGeometry x="600" y="60.5" width="50" height="39" as="geometry" />
        </mxCell>
        <mxCell id="uYu8JDhBFFsHPAoW2Dka-48" value="" style="edgeStyle=orthogonalEdgeStyle;rounded=0;orthogonalLoop=1;jettySize=auto;html=1;fontSize=15;" edge="1" parent="1" source="uYu8JDhBFFsHPAoW2Dka-24" target="uYu8JDhBFFsHPAoW2Dka-32">
          <mxGeometry relative="1" as="geometry" />
        </mxCell>
        <mxCell id="uYu8JDhBFFsHPAoW2Dka-51" value="" style="edgeStyle=orthogonalEdgeStyle;rounded=0;orthogonalLoop=1;jettySize=auto;html=1;fontSize=15;shape=flexArrow;strokeColor=none;fillColor=#FF9933;" edge="1" parent="1" source="uYu8JDhBFFsHPAoW2Dka-24" target="uYu8JDhBFFsHPAoW2Dka-50">
          <mxGeometry relative="1" as="geometry" />
        </mxCell>
        <mxCell id="uYu8JDhBFFsHPAoW2Dka-24" value="&lt;div align=&quot;center&quot;&gt;VyOS&lt;font style=&quot;font-size: 10px&quot;&gt;&lt;br&gt;&lt;/font&gt;&lt;/div&gt;&lt;div align=&quot;center&quot;&gt;&lt;font style=&quot;font-size: 10px&quot;&gt;10.6.25.1&lt;/font&gt;&lt;/div&gt;&lt;div style=&quot;font-size: 10px&quot; align=&quot;center&quot;&gt;&lt;br&gt;&lt;/div&gt;&lt;div align=&quot;center&quot;&gt;&lt;br&gt;&lt;/div&gt;" style="image;html=1;image=img/lib/clip_art/networking/Firewall_128x128.png;labelBackgroundColor=none;fontSize=22;labelPosition=left;verticalLabelPosition=middle;align=center;verticalAlign=middle;" vertex="1" parent="1">
          <mxGeometry x="360" y="125" width="80" height="80" as="geometry" />
        </mxCell>
        <mxCell id="uYu8JDhBFFsHPAoW2Dka-46" value="" style="edgeStyle=orthogonalEdgeStyle;rounded=0;orthogonalLoop=1;jettySize=auto;html=1;fontSize=15;" edge="1" parent="1" source="uYu8JDhBFFsHPAoW2Dka-29" target="uYu8JDhBFFsHPAoW2Dka-24">
          <mxGeometry relative="1" as="geometry" />
        </mxCell>
        <mxCell id="uYu8JDhBFFsHPAoW2Dka-29" value="" style="aspect=fixed;perimeter=ellipsePerimeter;html=1;align=center;shadow=0;dashed=0;spacingTop=3;image;image=img/lib/active_directory/switch.svg;labelBackgroundColor=none;fontSize=22;" vertex="1" parent="1">
          <mxGeometry x="510" y="140" width="50" height="50" as="geometry" />
        </mxCell>
        <mxCell id="uYu8JDhBFFsHPAoW2Dka-32" value="&lt;div&gt;NestWifi&lt;/div&gt;" style="image;html=1;image=img/lib/clip_art/networking/Wireless_Router_128x128.png;labelBackgroundColor=none;fontSize=22;" vertex="1" parent="1">
          <mxGeometry x="360" y="240" width="80" height="80" as="geometry" />
        </mxCell>
        <mxCell id="uYu8JDhBFFsHPAoW2Dka-37" value="&lt;div style=&quot;font-size: 15px;&quot;&gt;Saphira(2.4Ghz)&lt;/div&gt;" style="html=1;verticalLabelPosition=top;align=center;labelBackgroundColor=#ffffff;verticalAlign=bottom;strokeWidth=2;strokeColor=#0080F0;shadow=0;dashed=0;shape=mxgraph.ios7.icons.wifi;pointerEvents=1;fontSize=15;labelPosition=center;" vertex="1" parent="1">
          <mxGeometry x="800" y="60.5" width="29.7" height="21" as="geometry" />
        </mxCell>
        <mxCell id="uYu8JDhBFFsHPAoW2Dka-39" value="&lt;font style=&quot;font-size: 15px&quot;&gt;Firnen(5Ghz)&lt;/font&gt;" style="html=1;verticalLabelPosition=bottom;align=center;labelBackgroundColor=#ffffff;verticalAlign=top;strokeWidth=2;strokeColor=#0080F0;shadow=0;dashed=0;shape=mxgraph.ios7.icons.wifi;pointerEvents=1;fontSize=22;" vertex="1" parent="1">
          <mxGeometry x="800" y="230" width="29.7" height="21" as="geometry" />
        </mxCell>
        <mxCell id="uYu8JDhBFFsHPAoW2Dka-41" value="" style="aspect=fixed;perimeter=ellipsePerimeter;html=1;align=center;shadow=0;dashed=0;spacingTop=3;image;image=img/lib/active_directory/switch.svg;labelBackgroundColor=none;fontSize=15;" vertex="1" parent="1">
          <mxGeometry x="705" y="330" width="50" height="50" as="geometry" />
        </mxCell>
        <mxCell id="uYu8JDhBFFsHPAoW2Dka-50" value="" style="whiteSpace=wrap;html=1;fontSize=22;fillColor=#ffe6cc;strokeColor=#d79b00;" vertex="1" parent="1">
          <mxGeometry x="10" y="10" width="270" height="430" as="geometry" />
        </mxCell>
      </root>
    </mxGraphModel>
  </diagram>
</mxfile>
